<svg xmlns="http://www.w3.org/2000/svg" width="70" height="21" fill="none">
  <rect width="5.01" height="8.83" fill="#fff" rx="1.06" transform="rotate(44.74 2.15 13.12) skewX(.01)"/>
  <g filter="url(#a)">
    <rect width="5.01" height="8.82" x="8.16" y="20.09" fill="#fff" rx="1.06" transform="rotate(-135.26 8.16 20.09)"/>
  </g>
  <rect width="5.03" height="3.75" fill="#fff" rx="1.06" transform="rotate(44.74 -10.12 8.1) skewX(.01)"/>
  <rect width="5.04" height="3.78" x="15.24" y="12.91" fill="#fff" rx="1.06" transform="rotate(-135.26 15.24 12.9)"/>
  <path fill="#fff" d="M22.04 14.91V6.87h2.16v1.4h.08a1.94 1.94 0 0 1 1.93-1.52 3.38 3.38 0 0 1 .7.08v1.98a3.9 3.9 0 0 0-.94-.12c-.32 0-.62.07-.87.22a1.58 1.58 0 0 0-.83 1.45v4.55h-2.23Zm9.32.16a4.3 4.3 0 0 1-2.13-.5 3.44 3.44 0 0 1-1.38-1.44 4.74 4.74 0 0 1-.48-2.2c0-.83.16-1.56.48-2.18.33-.63.78-1.11 1.36-1.46a3.96 3.96 0 0 1 2.06-.53c.53 0 1.03.09 1.48.26a3.29 3.29 0 0 1 2.02 2.04c.19.5.28 1.1.28 1.79v.61h-6.79v-1.38h4.7c0-.32-.08-.6-.22-.85a1.5 1.5 0 0 0-.58-.59 1.66 1.66 0 0 0-.85-.21c-.34 0-.64.08-.9.24a1.76 1.76 0 0 0-.83 1.49v1.3c0 .4.07.75.22 1.04.15.29.36.51.63.67.27.15.6.23.97.23.25 0 .47-.03.68-.1a1.37 1.37 0 0 0 .86-.83l2.07.14c-.1.5-.32.93-.65 1.3-.32.36-.73.65-1.24.85-.51.2-1.1.3-1.76.3Zm8.78 0c-.82 0-1.53-.18-2.12-.53a3.54 3.54 0 0 1-1.36-1.46 4.74 4.74 0 0 1-.48-2.16c0-.82.16-1.54.48-2.17.32-.62.78-1.1 1.37-1.46.59-.35 1.29-.53 2.1-.53.7 0 1.32.13 1.84.39.53.25.95.6 1.26 1.07.3.46.47 1 .5 1.62h-2.1c-.06-.4-.22-.72-.47-.97a1.35 1.35 0 0 0-1-.37c-.34 0-.64.1-.9.29a1.8 1.8 0 0 0-.6.8c-.14.36-.2.8-.2 1.3 0 .51.06.95.2 1.3.14.37.34.64.6.83.26.19.56.28.9.28.26 0 .5-.05.7-.15.2-.1.37-.26.5-.46.14-.2.23-.44.27-.73h2.1a3.3 3.3 0 0 1-.5 1.63c-.3.46-.7.82-1.23 1.09-.52.26-1.14.39-1.86.39Zm8.66 0c-.82 0-1.52-.17-2.11-.52a3.55 3.55 0 0 1-1.37-1.46 4.69 4.69 0 0 1-.48-2.17c0-.83.16-1.56.48-2.18a3.5 3.5 0 0 1 1.37-1.45c.59-.35 1.3-.53 2.1-.53.82 0 1.52.18 2.11.53.6.34 1.05.83 1.37 1.45.32.62.48 1.35.48 2.18 0 .83-.16 1.55-.48 2.17-.32.63-.78 1.11-1.37 1.46a4.1 4.1 0 0 1-2.1.52Zm0-1.73c.38 0 .68-.1.93-.31.25-.22.44-.5.56-.87.13-.37.2-.79.2-1.25 0-.47-.07-.89-.2-1.26a1.95 1.95 0 0 0-.56-.86 1.37 1.37 0 0 0-.92-.32c-.38 0-.7.1-.95.32-.25.2-.44.5-.57.86-.12.37-.19.79-.19 1.26 0 .46.07.88.2 1.25.12.36.31.65.56.87.26.2.57.31.95.31Zm5.4 1.57V6.87h2.17v1.4h.08a1.94 1.94 0 0 1 1.93-1.52 3.38 3.38 0 0 1 .7.08v1.98a3.9 3.9 0 0 0-.94-.12c-.33 0-.62.07-.88.22a1.58 1.58 0 0 0-.83 1.45v4.55H54.2Zm8.63.13c-.62 0-1.17-.15-1.66-.47-.5-.32-.89-.78-1.18-1.4a5.39 5.39 0 0 1-.43-2.27c0-.92.15-1.69.45-2.3A3.03 3.03 0 0 1 63.95 7c.3.14.54.33.73.56.19.22.33.44.43.66h.07V4.19h2.22V14.9h-2.2v-1.29h-.1c-.1.23-.24.45-.44.67-.19.21-.43.4-.74.54-.3.14-.66.21-1.1.21Zm.7-1.77c.36 0 .67-.1.91-.3.25-.2.45-.47.58-.83.14-.35.2-.77.2-1.25s-.06-.9-.2-1.25a1.79 1.79 0 0 0-.57-.81c-.25-.2-.56-.3-.92-.3s-.67.1-.92.3c-.26.2-.45.48-.58.84-.12.35-.19.76-.19 1.22 0 .47.07.88.2 1.24s.32.64.57.84c.25.2.56.3.92.3Z"/>
  <defs>
    <filter id="a" width="9.14" height="9.17" x="4.91" y="10.74" color-interpolation-filters="sRGB" filterUnits="userSpaceOnUse">
      <feFlood flood-opacity="0" result="BackgroundImageFix"/>
      <feColorMatrix in="SourceAlpha" result="hardAlpha" values="0 0 0 0 0 0 0 0 0 0 0 0 0 0 0 0 0 0 127 0"/>
      <feOffset dy=".13"/>
      <feGaussianBlur stdDeviation=".06"/>
      <feComposite in2="hardAlpha" operator="out"/>
      <feColorMatrix values="0 0 0 0 0 0 0 0 0 0 0 0 0 0 0 0 0 0 0.25 0"/>
      <feBlend in2="BackgroundImageFix" result="effect1_dropShadow_27_337"/>
      <feBlend in="SourceGraphic" in2="effect1_dropShadow_27_337" result="shape"/>
    </filter>
  </defs>
</svg>