<svg width="238" height="164" viewBox="0 0 238 164" fill="none" xmlns="http://www.w3.org/2000/svg">
<g clip-path="url(#clip0_27_347)">
<path d="M99.01 163.784H20.5242C20.1389 163.784 19.7695 163.63 19.497 163.358C19.2246 163.085 19.0713 162.716 19.0708 162.331V95.2145C19.0713 94.8292 19.2246 94.4598 19.497 94.1873C19.7695 93.9149 20.1389 93.7616 20.5242 93.7611H99.01C99.3953 93.7616 99.7647 93.9149 100.037 94.1873C100.31 94.4598 100.463 94.8292 100.463 95.2145V162.33C100.463 162.716 100.31 163.085 100.037 163.358C99.7648 163.63 99.3954 163.783 99.01 163.784V163.784ZM20.5242 94.3413C20.2933 94.3418 20.0719 94.4338 19.9086 94.5971C19.7454 94.7603 19.6534 94.9817 19.6529 95.2126V162.33C19.6534 162.561 19.7454 162.783 19.9086 162.946C20.0719 163.109 20.2933 163.201 20.5242 163.202H99.01C99.241 163.201 99.4623 163.109 99.6256 162.946C99.7889 162.783 99.8809 162.561 99.8813 162.33V95.2145C99.8808 94.9836 99.7888 94.7622 99.6255 94.599C99.4623 94.4357 99.241 94.3437 99.01 94.3432L20.5242 94.3413Z" fill="#E6E6E6"/>
<path d="M32.7193 157.769C35.9891 157.769 38.6398 155.119 38.6398 151.849C38.6398 148.579 35.9891 145.928 32.7193 145.928C29.4495 145.928 26.7988 148.579 26.7988 151.849C26.7988 155.119 29.4495 157.769 32.7193 157.769Z" fill="#E6E6E6"/>
<path d="M46.3934 147.902C46.1317 147.902 45.8808 148.006 45.6957 148.191C45.5107 148.376 45.4067 148.627 45.4067 148.888C45.4067 149.15 45.5107 149.401 45.6957 149.586C45.8808 149.771 46.1317 149.875 46.3934 149.875H92.9121C93.1737 149.875 93.4247 149.771 93.6098 149.586C93.7948 149.401 93.8988 149.15 93.8988 148.888C93.8988 148.627 93.7948 148.376 93.6098 148.191C93.4247 148.006 93.1737 147.902 92.9121 147.902H46.3934Z" fill="#E6E6E6"/>
<path d="M46.3934 153.823C46.1317 153.823 45.8808 153.926 45.6957 154.112C45.5107 154.297 45.4067 154.548 45.4067 154.809C45.4067 155.071 45.5107 155.322 45.6957 155.507C45.8808 155.692 46.1317 155.796 46.3934 155.796H66.4106C66.6723 155.796 66.9232 155.692 67.1083 155.507C67.2933 155.322 67.3973 155.071 67.3973 154.809C67.3973 154.548 67.2933 154.297 67.1083 154.112C66.9232 153.926 66.6723 153.823 66.4106 153.823H46.3934Z" fill="#E6E6E6"/>
<path d="M117.658 140.375H39.1716C38.7863 140.374 38.4169 140.221 38.1444 139.949C37.872 139.676 37.7187 139.307 37.7183 138.921V104.478C37.7187 104.092 37.872 103.723 38.1444 103.45C38.4169 103.178 38.7863 103.025 39.1716 103.024H117.658C118.043 103.025 118.413 103.178 118.685 103.45C118.957 103.723 119.111 104.092 119.111 104.478V138.921C119.111 139.307 118.957 139.676 118.685 139.949C118.413 140.221 118.043 140.374 117.658 140.375Z" fill="white"/>
<path d="M55.1547 115.03C54.893 115.03 54.642 115.134 54.457 115.319C54.2719 115.504 54.168 115.755 54.168 116.016C54.168 116.278 54.2719 116.529 54.457 116.714C54.642 116.899 54.893 117.003 55.1547 117.003H101.674C101.935 117.003 102.186 116.899 102.371 116.714C102.556 116.529 102.66 116.278 102.66 116.016C102.66 115.755 102.556 115.504 102.371 115.319C102.186 115.134 101.935 115.03 101.674 115.03H55.1547Z" fill="white"/>
<path d="M55.1547 120.747C54.893 120.747 54.642 120.851 54.457 121.036C54.2719 121.221 54.168 121.472 54.168 121.734C54.168 121.996 54.2719 122.247 54.457 122.432C54.642 122.617 54.893 122.721 55.1547 122.721H101.674C101.935 122.721 102.186 122.617 102.371 122.432C102.556 122.247 102.66 121.996 102.66 121.734C102.66 121.472 102.556 121.221 102.371 121.036C102.186 120.851 101.935 120.747 101.674 120.747H55.1547Z" fill="white"/>
<path d="M55.1547 126.396C54.893 126.396 54.642 126.5 54.457 126.685C54.2719 126.87 54.168 127.121 54.168 127.382C54.168 127.644 54.2719 127.895 54.457 128.08C54.642 128.265 54.893 128.369 55.1547 128.369H75.1718C75.4335 128.369 75.6845 128.265 75.8695 128.08C76.0546 127.895 76.1585 127.644 76.1585 127.382C76.1585 127.121 76.0546 126.87 75.8695 126.685C75.6845 126.5 75.4335 126.396 75.1718 126.396H55.1547Z" fill="white"/>
<path d="M237.271 163.124H0.288574V163.669H237.271V163.124Z" fill="#3F3D56"/>
<path d="M206.01 163.124H127.524C127.139 163.124 126.769 162.971 126.497 162.698C126.225 162.426 126.071 162.056 126.071 161.671V142.202C126.071 141.816 126.225 141.447 126.497 141.175C126.769 140.902 127.139 140.749 127.524 140.748H206.01C206.395 140.749 206.765 140.902 207.037 141.175C207.31 141.447 207.463 141.816 207.463 142.202V161.671C207.463 162.056 207.31 162.426 207.037 162.698C206.765 162.971 206.395 163.124 206.01 163.124ZM127.524 141.328C127.293 141.329 127.072 141.421 126.909 141.584C126.745 141.748 126.653 141.969 126.653 142.2V161.669C126.653 161.9 126.745 162.121 126.909 162.284C127.072 162.448 127.293 162.54 127.524 162.54H206.01C206.241 162.54 206.462 162.448 206.626 162.284C206.789 162.121 206.881 161.9 206.881 161.669V142.202C206.881 141.971 206.789 141.749 206.626 141.586C206.462 141.423 206.241 141.331 206.01 141.33L127.524 141.328Z" fill="#E6E6E6"/>
<path d="M139.719 157.11C142.989 157.11 145.64 154.459 145.64 151.189C145.64 147.919 142.989 145.269 139.719 145.269C136.45 145.269 133.799 147.919 133.799 151.189C133.799 154.459 136.45 157.11 139.719 157.11Z" fill="#E6E6E6"/>
<path d="M153.393 147.242C153.132 147.242 152.881 147.346 152.696 147.531C152.511 147.716 152.407 147.967 152.407 148.229C152.407 148.491 152.511 148.741 152.696 148.927C152.881 149.112 153.132 149.216 153.393 149.216H199.912C200.174 149.216 200.425 149.112 200.61 148.927C200.795 148.741 200.899 148.491 200.899 148.229C200.899 147.967 200.795 147.716 200.61 147.531C200.425 147.346 200.174 147.242 199.912 147.242H153.393Z" fill="#E6E6E6"/>
<path d="M153.393 153.163C153.132 153.163 152.881 153.267 152.696 153.452C152.511 153.637 152.407 153.888 152.407 154.15C152.407 154.411 152.511 154.662 152.696 154.847C152.881 155.032 153.132 155.136 153.393 155.136H173.411C173.672 155.136 173.923 155.032 174.108 154.847C174.293 154.662 174.397 154.411 174.397 154.15C174.397 153.888 174.293 153.637 174.108 153.452C173.923 153.267 173.672 153.163 173.411 153.163H153.393Z" fill="#E6E6E6"/>
<path d="M192.213 140.291L120.477 108.347C120.125 108.19 119.85 107.9 119.712 107.54C119.574 107.18 119.584 106.78 119.74 106.427L127.664 88.6324C127.822 88.2804 128.112 88.0052 128.472 87.867C128.832 87.7289 129.232 87.7392 129.584 87.8956L201.32 119.839C201.672 119.997 201.948 120.287 202.086 120.647C202.224 121.007 202.214 121.407 202.057 121.759L194.133 139.554C193.976 139.906 193.686 140.181 193.326 140.319C192.966 140.457 192.566 140.447 192.213 140.291ZM129.348 88.4259C129.137 88.3324 128.897 88.3264 128.681 88.4091C128.466 88.4919 128.292 88.6568 128.197 88.8676L120.273 106.662C120.18 106.874 120.174 107.113 120.256 107.329C120.339 107.545 120.504 107.719 120.715 107.813L192.451 139.757C192.662 139.851 192.902 139.857 193.118 139.774C193.333 139.691 193.508 139.526 193.602 139.315L201.525 121.522C201.619 121.311 201.625 121.071 201.542 120.856C201.459 120.64 201.294 120.466 201.083 120.371L129.348 88.4259Z" fill="#E6E6E6"/>
<path d="M134.071 107.813C137.06 109.144 140.561 107.8 141.892 104.812C143.223 101.823 141.879 98.3214 138.89 96.9906C135.902 95.6598 132.4 97.0037 131.069 99.9922C129.739 102.981 131.082 106.482 134.071 107.813Z" fill="#E6E6E6"/>
<path d="M150.585 104.359C150.346 104.253 150.074 104.246 149.83 104.34C149.585 104.433 149.388 104.621 149.282 104.86C149.175 105.099 149.168 105.371 149.262 105.615C149.356 105.859 149.543 106.057 149.782 106.163L192.3 125.096C192.539 125.203 192.811 125.21 193.055 125.116C193.3 125.022 193.497 124.835 193.603 124.596C193.71 124.357 193.717 124.085 193.623 123.841C193.529 123.596 193.342 123.399 193.103 123.293L150.585 104.359Z" fill="#E6E6E6"/>
<path d="M148.176 109.771C147.937 109.665 147.665 109.657 147.42 109.751C147.176 109.845 146.979 110.032 146.872 110.271C146.766 110.51 146.759 110.782 146.853 111.027C146.946 111.271 147.133 111.468 147.373 111.575L165.668 119.722C165.907 119.828 166.179 119.835 166.424 119.742C166.668 119.648 166.865 119.461 166.972 119.221C167.078 118.982 167.085 118.711 166.992 118.466C166.898 118.222 166.711 118.025 166.471 117.918L148.176 109.771Z" fill="#E6E6E6"/>
<path d="M133.254 86.192L55.0818 93.0202C54.698 93.0532 54.3167 92.9327 54.0217 92.6851C53.7266 92.4374 53.5418 92.0828 53.5078 91.6991L51.8139 72.3076C51.7809 71.9238 51.9015 71.5426 52.1491 71.2476C52.3968 70.9525 52.7513 70.7677 53.1351 70.7337L131.307 63.9054C131.691 63.8724 132.072 63.9929 132.367 64.2406C132.662 64.4882 132.847 64.8428 132.881 65.2265L134.575 84.6177C134.608 85.0015 134.487 85.3828 134.24 85.678C133.992 85.9731 133.637 86.1579 133.254 86.192ZM53.1855 71.3115C52.9556 71.3321 52.7431 71.443 52.5947 71.6198C52.4463 71.7967 52.374 72.0251 52.3936 72.2551L54.0874 91.6463C54.108 91.8762 54.2188 92.0887 54.3956 92.2371C54.5725 92.3855 54.8009 92.4579 55.0309 92.4383L133.203 85.61C133.433 85.5895 133.645 85.4787 133.794 85.3018C133.942 85.125 134.015 84.8965 133.995 84.6664L132.301 65.2771C132.281 65.0472 132.17 64.8347 131.993 64.6862C131.816 64.5378 131.588 64.4655 131.358 64.4852L53.1855 71.3115Z" fill="#E6E6E6"/>
<path d="M66.7048 85.9687C69.9615 85.6842 72.371 82.8135 72.0865 79.5568C71.802 76.3001 68.9313 73.8906 65.6746 74.1751C62.4179 74.4596 60.0084 77.3303 60.2929 80.587C60.5774 83.8437 63.4481 86.2531 66.7048 85.9687Z" fill="#E6E6E6"/>
<path d="M79.4652 74.9509C79.2045 74.9737 78.9636 75.099 78.7954 75.2994C78.6272 75.4998 78.5455 75.7589 78.5683 76.0195C78.591 76.2801 78.7164 76.5211 78.9168 76.6893C79.1172 76.8575 79.3762 76.9392 79.6369 76.9164L125.969 72.8693C126.23 72.8465 126.471 72.7212 126.639 72.5208C126.807 72.3204 126.889 72.0613 126.866 71.8007C126.844 71.5401 126.718 71.2991 126.518 71.1309C126.317 70.9627 126.058 70.881 125.798 70.9038L79.4652 74.9509Z" fill="#E6E6E6"/>
<path d="M79.9803 80.848C79.7197 80.8708 79.4787 80.9961 79.3105 81.1965C79.1423 81.3969 79.0606 81.656 79.0834 81.9166C79.1062 82.1772 79.2315 82.4181 79.4319 82.5864C79.6323 82.7546 79.8913 82.8363 80.152 82.8135L100.089 81.072C100.35 81.0492 100.591 80.9239 100.759 80.7235C100.927 80.5231 101.009 80.2641 100.986 80.0034C100.963 79.7428 100.838 79.5019 100.637 79.3337C100.437 79.1654 100.178 79.0837 99.9174 79.1065L79.9803 80.848Z" fill="#E6E6E6"/>
<path d="M118.444 23.4378C123.407 23.4378 127.429 19.4151 127.429 14.4529C127.429 9.49073 123.407 5.46808 118.444 5.46808C113.482 5.46808 109.459 9.49073 109.459 14.4529C109.459 19.4151 113.482 23.4378 118.444 23.4378Z" fill="#2F2E41"/>
<path d="M118.627 24.2315C122.32 24.2315 125.314 21.2375 125.314 17.5443C125.314 13.8511 122.32 10.8571 118.627 10.8571C114.933 10.8571 111.939 13.8511 111.939 17.5443C111.939 21.2375 114.933 24.2315 118.627 24.2315Z" fill="white"/>
<path d="M128.79 27.2495C128.79 27.2495 116.538 25.0714 108.643 27.7941L110.957 46.1722L110.412 49.1671L126.748 48.6226L125.659 45.6276L128.79 27.2495Z" fill="white"/>
<path d="M120.276 47.0821C117.455 47.0485 114.638 46.8701 111.836 46.5474C111.26 46.4841 110.729 46.2072 110.348 45.7713C109.967 45.3355 109.763 44.7725 109.777 44.1937L109.976 35.599L109.999 35.5655C112.366 32.1368 111.213 29.6325 110.326 28.2842C110.138 27.9995 110.039 27.6661 110.039 27.3253C109.903 27.1347 109.873 27.4356 109.958 27.2221C109.999 27.1162 110.067 27.0224 110.154 26.9493C110.242 26.8761 110.346 26.826 110.457 26.8034L111.809 26.5333C111.971 26.5009 112.14 26.5286 112.283 26.6114C112.426 26.6941 112.534 26.8261 112.587 26.9828C113.041 28.3379 114.811 32.698 118.867 32.6969C122.256 32.6969 123.52 27.902 123.596 26.7938C123.608 26.6222 123.685 26.4615 123.811 26.3442C123.937 26.2269 124.102 26.1617 124.274 26.1616H125.963C126.069 26.1591 126.175 26.1807 126.273 26.2247C126.37 26.2687 126.456 26.3341 126.525 26.4159C126.609 26.5201 126.66 26.647 126.672 26.7803C126.684 26.9137 126.656 27.0476 126.591 27.1649C124.665 30.7071 127.48 36.3131 127.509 36.3676L127.527 36.403L126.733 44.6508C126.684 45.1347 126.486 45.5913 126.165 45.9564C125.844 46.3216 125.416 46.5769 124.943 46.6865C123.714 46.9749 122.054 47.0821 120.276 47.0821Z" fill="#CCCCCC"/>
<path d="M104.728 66.2193C102.898 66.2193 101.224 66.0178 99.8927 65.5416C98.3108 64.9756 97.3175 64.0602 96.9402 62.8189C96.7619 62.2915 96.7086 61.7299 96.7845 61.1784C96.8604 60.6268 97.0634 60.1005 97.3774 59.6408C99.7176 56.1367 107.838 55.1483 108.928 55.0315L109.505 50.2214C109.574 49.6663 109.84 49.1545 110.255 48.78C110.671 48.4056 111.208 48.1937 111.767 48.1832L125.443 47.9697C125.993 47.9565 126.529 48.141 126.953 48.4896C127.378 48.8383 127.664 49.3279 127.758 49.8693L128.535 54.1439L119.567 58.4934L120.923 62.2902L120.834 62.3493C118.209 64.0989 110.661 66.219 104.728 66.2193Z" fill="#2F2E41"/>
<path d="M127.292 53.5234C127.292 53.5234 139.817 51.8898 139 58.4242C138.183 64.9586 128.654 69.5872 114.224 58.4242L115.857 55.157C115.857 55.157 124.025 57.3351 127.292 55.7015V53.5234Z" fill="#2F2E41"/>
<path d="M116.13 55.974C116.13 55.974 116.13 52.7067 113.407 52.979C110.684 53.2513 105.783 53.5235 105.783 53.5235C105.783 53.5235 104.15 54.6126 106.328 55.1572C108.506 55.7017 115.041 58.4244 115.041 58.4244L116.13 55.974Z" fill="white"/>
<path d="M120.758 55.4293C120.758 55.4293 120.758 52.1621 123.481 52.4344C126.204 52.7067 131.104 52.9789 131.104 52.9789C131.104 52.9789 132.738 54.068 130.56 54.6125C128.382 55.1571 121.847 57.8798 121.847 57.8798L120.758 55.4293Z" fill="white"/>
<path d="M137.073 54.8104L133.01 40.7268C133.01 40.7268 132.194 35.826 131.377 31.1974C130.56 26.5688 127.565 27.1134 127.565 27.1134L127.021 27.3857V34.7369L127.565 41.5436L133.001 56.4911C132.841 57.0095 132.832 57.5626 132.974 58.086C133.117 58.6094 133.405 59.0814 133.806 59.4469C134.207 59.8124 134.704 60.0563 135.238 60.1501C135.772 60.244 136.322 60.1838 136.824 59.9767C137.325 59.7696 137.757 59.4242 138.07 58.9807C138.382 58.5371 138.562 58.0139 138.588 57.472C138.614 56.9302 138.486 56.3921 138.217 55.9206C137.949 55.4491 137.552 55.0637 137.073 54.8093V54.8104Z" fill="white"/>
<path d="M109.595 27.6579C109.595 27.6579 106.6 27.1133 105.783 31.7419C104.966 36.3705 104.149 41.2713 104.149 41.2713L100.087 55.3549C99.6076 55.6092 99.2107 55.9947 98.9424 56.4662C98.6741 56.9377 98.5456 57.4758 98.5717 58.0176C98.5978 58.5595 98.7776 59.0827 99.09 59.5262C99.4023 59.9697 99.8345 60.3152 100.336 60.5223C100.837 60.7294 101.387 60.7895 101.922 60.6957C102.456 60.6019 102.952 60.358 103.353 59.9925C103.754 59.627 104.043 59.155 104.185 58.6316C104.328 58.1082 104.319 57.555 104.159 57.0367L109.595 42.0892L110.139 35.2825V28.5389C110.139 28.356 110.088 28.1767 109.992 28.0211C109.896 27.8654 109.758 27.7397 109.595 27.6579Z" fill="white"/>
<path d="M112.006 13.4363C114.618 15.0305 117.562 16.0006 120.61 16.2711L119.703 15.1845C120.363 15.4285 121.058 15.5663 121.762 15.5929C122.114 15.6031 122.464 15.5306 122.783 15.3813C123.102 15.2319 123.382 15.0098 123.6 14.7328C123.777 14.4452 123.883 14.1188 123.908 13.7815C123.932 13.4441 123.875 13.1059 123.74 12.7956C123.464 12.1767 123.034 11.6388 122.491 11.2331C121.528 10.4717 120.392 9.96024 119.184 9.74433C117.976 9.52842 116.733 9.61475 115.567 9.99562C114.766 10.2346 114.049 10.6943 113.497 11.3221C113.226 11.6383 113.038 12.0168 112.95 12.4236C112.861 12.8304 112.875 13.2528 112.99 13.653" fill="#2F2E41"/>
<path d="M119.29 6.46541C117.181 4.32661 114.628 2.67613 111.812 1.63019C110.005 0.960683 108.037 0.546844 106.148 0.927202C104.258 1.30756 102.472 2.61526 101.944 4.46886C101.513 5.98485 101.958 7.61736 102.627 9.04459C103.296 10.4718 104.189 11.7945 104.73 13.2756C105.283 14.7863 105.449 16.4109 105.214 18.002C104.979 19.5932 104.35 21.1004 103.385 22.387C102.42 23.6735 101.148 24.6985 99.6863 25.369C98.2243 26.0395 96.618 26.3342 95.0132 26.2263C96.8698 26.4752 98.5813 27.3478 100.396 27.8123C102.211 28.2768 104.353 28.2452 105.702 26.9451C107.129 25.5696 107.157 23.333 107.088 21.3522L106.78 12.5185C106.728 11.0169 106.683 9.46688 107.225 8.06525C107.766 6.66361 109.054 5.43622 110.556 5.44902C111.695 5.45882 112.703 6.14848 113.616 6.82887C114.53 7.50927 115.495 8.23514 116.63 8.33615C117.766 8.43716 119.06 7.59803 118.975 6.46213" fill="#2F2E41"/>
<path d="M227.166 150.936C227.058 154.984 226.38 158.997 225.152 162.857C225.124 162.946 225.094 163.035 225.065 163.124H217.547C217.554 163.044 217.563 162.954 217.571 162.857C218.072 157.094 215.208 122.438 211.752 116.44C212.055 116.926 227.749 132.624 227.166 150.936Z" fill="#E6E6E6"/>
<path d="M226.601 162.857C226.538 162.946 226.472 163.036 226.405 163.124H220.765C220.808 163.048 220.857 162.958 220.915 162.857C221.847 161.175 224.604 156.147 227.164 150.935C229.914 145.334 232.439 139.521 232.227 137.417C232.292 137.891 234.196 152.358 226.601 162.857Z" fill="#E6E6E6"/>
</g>
<defs>
<clipPath id="clip0_27_347">
<rect width="236.982" height="163.002" fill="white" transform="translate(0.288574 0.781799)"/>
</clipPath>
</defs>
</svg>
